:version 1.10
:name ASF
:units
  mass 1
  length 1
  angle deg
:documentation
  ASF file generated by Kaydara
:root
  axis xyz
  order  tx ty tz rx ry rz
  position 0 0 0
  orientation 0 0 0
:bonedata
  begin
    id 1
    name RightUpLegDummy
    direction -0.65628 -0.754516 0.00165102
    length 4.76918
    axis 0 0 0 xyz
  end
  begin
    id 2
    name RightUpLeg
    direction -0.145584 -0.923362 0.355256
    length 17.9961
    axis -24.7611 -13.1006 1.78531 xyz
    dof rx ry rz
  end
  begin
    id 3
    name RightLeg
    direction 0.263379 0.172355 -0.949171
    length 13.3386
    axis 89.6202 -21.1929 12.3855 xyz
    dof rx ry rz
  end
  begin
    id 4
    name RightFoot
    direction 0.224283 -0.968777 -0.105675
    length 5.86697
    axis 56.995 -39.6905 17.3365 xyz
    dof rx ry rz
  end
  begin
    id 5
    name RightToes
    direction -0.0806345 -0.9037 0.420506
    length 4.75197
    axis 146.825 -39.7828 17.6019 xyz
    dof rx ry rz
  end
  begin
    id 6
    name SpineDummy
    direction -3.39852e-014 1 9.33296e-014
    length 8.13779
    axis 0 0 0 xyz
  end
  begin
    id 7
    name Spine
    direction -0.156609 0.733703 0.661176
    length 7.14978
    axis 41.2365 5.68757 17.0844 xyz
    dof rx ry rz
  end
  begin
    id 8
    name Spine1
    direction 0 0 0
    length 0
    axis 42.8809 47.8308 -3.36039 xyz
    dof rx ry rz
  end
  begin
    id 9
    name HEadDummy
    direction 0.546431 0.701947 0.456819
    length 3.55512
    axis 42.8809 47.8308 -3.36039 xyz
  end
  begin
    id 10
    name HEad
    direction 0.23444 0.828559 0.508457
    length 7.35827
    axis 51.1864 49.2662 27.4903 xyz
    dof rx ry rz
  end
  begin
    id 11
    name LeftShoulder1Dummy
    direction 0.431183 0.475873 -0.766568
    length 2.49352
    axis 42.8809 47.8308 -3.36039 xyz
  end
  begin
    id 12
    name LeftShoulder1
    direction 0.268187 -0.383402 -0.883786
    length 4.48604
    axis -119.517 0.106469 35.1736 xyz
    dof rx ry rz
  end
  begin
    id 13
    name LeftArm
    direction 0.380567 -0.703221 -0.600541
    length 10.1142
    axis -5.41825 36.2925 7.8293 xyz
    dof rx ry rz
  end
  begin
    id 14
    name LeftForeArm
    direction 0.541071 -0.732356 -0.413396
    length 9.39839
    axis 4.65387 33.7604 7.81644 xyz
    dof rx ry rz
  end
  begin
    id 15
    name LeftHand
    direction 0.847511 -0.389379 -0.360707
    length 3.66142
    axis 7.65593 21.1436 -24.6758 xyz
    dof rx ry rz
  end
  begin
    id 16
    name RightShoulderDummy
    direction -0.692546 0.541855 0.476208
    length 2.49352
    axis 42.8809 47.8308 -3.36039 xyz
  end
  begin
    id 17
    name RightShoulder
    direction -0.870808 -0.316653 0.376065
    length 4.48602
    axis 141.571 51.133 -100.254 xyz
    dof rx ry rz
  end
  begin
    id 18
    name RightArm
    direction 0.366897 -0.87275 0.322015
    length 10.1142
    axis 92.3258 71.2036 138.917 xyz
    dof rx ry rz
  end
  begin
    id 19
    name RightForeArm
    direction 0.702487 -0.694568 0.155197
    length 9.39835
    axis 153.863 41.5092 -176.604 xyz
    dof rx ry rz
  end
  begin
    id 20
    name RightHand
    direction 0.79502 -0.601276 0.0800636
    length 3.66142
    axis 154.247 4.59222 142.9 xyz
    dof rx ry rz
  end
  begin
    id 21
    name LeftUpLegDummy
    direction 0.65628 -0.754516 0.00165102
    length 4.76919
    axis 0 0 0 xyz
  end
  begin
    id 22
    name LeftUpLeg
    direction -0.1277 -0.689368 0.713067
    length 17.9961
    axis -48.3385 -17.8675 0.791927 xyz
    dof rx ry rz
  end
  begin
    id 23
    name LeftLeg
    direction 0.109849 -0.991246 -0.0732378
    length 13.3386
    axis -2.05791 -7.30784 1.72042 xyz
    dof rx ry rz
  end
  begin
    id 24
    name LeftFoot
    direction 0.0448355 -0.272614 0.961078
    length 5.86697
    axis -18.7733 -7.89606 10.2113 xyz
    dof rx ry rz
  end
  begin
    id 25
    name LeftToes
    direction -0.18506 0.293668 0.937823
    length 4.75197
    axis 71.2267 -7.89606 10.2113 xyz
    dof rx ry rz
  end
:hierarchy
  begin
    root RightUpLegDummy SpineDummy LeftUpLegDummy
    RightUpLegDummy RightUpLeg
    RightUpLeg RightLeg
    RightLeg RightFoot
    RightFoot RightToes
    SpineDummy Spine
    Spine Spine1
    Spine1 HEadDummy LeftShoulder1Dummy RightShoulderDummy
    HEadDummy HEad
    LeftShoulder1Dummy LeftShoulder1
    LeftShoulder1 LeftArm
    LeftArm LeftForeArm
    LeftForeArm LeftHand
    RightShoulderDummy RightShoulder
    RightShoulder RightArm
    RightArm RightForeArm
    RightForeArm RightHand
    LeftUpLegDummy LeftUpLeg
    LeftUpLeg LeftLeg
    LeftLeg LeftFoot
    LeftFoot LeftToes
  end

:SAMPLES-PER-SECOND 30
:FULLY-SPECIFIED
:DEGREES
1
root  1.57847 40.0076 4.51951 179.912 -1.84988 179.477
RightUpLeg  18.4405 11.5324 8.03405
RightLeg  -106.849 -9.19336 2.88364
RightFoot  27.0908 7.6325 -20.7484
RightToes  -1.27222e-014 -6.36111e-015 6.36111e-015
Spine  -51.465 -17.1879 -12.2369
Spine1  1.69875 -12.2887 48.9487
HEad  1.79648 -20.9105 -14.3262
LeftShoulder1  6.36111e-015 -1.33558e-015 6.49777e-015
LeftArm  33.6433 -5.03267 -52.1661
LeftForeArm  -4.44132 -25.6433 -0.074656
LeftHand  -0.666 0.661143 -10.4468
RightShoulder  -4.77083e-015 -6.36111e-015 -3.18055e-015
RightArm  58.6533 -42.4013 -27.9752
RightForeArm  -12.8457 -13.5272 -5.79384
RightHand  1.31243 -1.41477 -7.41429
LeftUpLeg  46.1799 15.4153 17.4705
LeftLeg  -33.7063 -5.88999 -5.3534
LeftFoot  7.64424 3.34421 -9.06468
LeftToes  1.27222e-014 -5.20697e-012 1.80337e-011
2
root  1.56886 40.0076 4.49192 179.854 -1.76691 179.477
RightUpLeg  18.5284 11.5116 8.00479
RightLeg  -106.809 -9.22259 2.80872
RightFoot  27.0303 7.63258 -20.7485
RightToes  -1.27222e-014 -6.36111e-015 6.36111e-015
Spine  -51.4464 -17.1501 -12.2334
Spine1  1.75717 -12.2723 48.9222
HEad  1.66774 -20.8302 -14.4063
LeftShoulder1  6.36111e-015 -1.33558e-015 6.49777e-015
LeftArm  33.9914 -4.86798 -52.6427
LeftForeArm  -4.29869 -25.2048 -0.184153
LeftHand  -0.719745 0.431961 -10.2968
RightShoulder  -4.77083e-015 -6.36111e-015 -3.18055e-015
RightArm  58.7033 -42.6494 -28.3431
RightForeArm  -12.1893 -13.537 -4.81613
RightHand  1.35036 -1.60561 -7.36195
LeftUpLeg  46.3373 15.4092 17.4382
LeftLeg  -33.7737 -5.80426 -5.41321
LeftFoot  7.60302 3.33964 -9.06195
LeftToes  1.27222e-014 -5.20697e-012 1.80337e-011
3
root  1.55347 40.006 4.4414 179.729 -1.70491 179.48
RightUpLeg  18.741 11.487 7.97961
RightLeg  -106.779 -9.27099 2.73363
RightFoot  26.944 7.61353 -20.7136
RightToes  -1.27222e-014 -6.36111e-015 6.36111e-015
Spine  -51.2886 -17.0841 -12.2391
Spine1  1.7029 -12.2334 48.901
HEad  1.64903 -21.1177 -14.4736
LeftShoulder1  6.36111e-015 -1.33558e-015 6.49777e-015
LeftArm  34.7502 -4.605 -53.5722
LeftForeArm  -3.92109 -24.4284 -0.394493
LeftHand  -0.763769 0.313263 -10.4117
RightShoulder  -4.77083e-015 -6.36111e-015 -3.18055e-015
RightArm  59.4118 -43.1504 -30.2264
RightForeArm  -10.6065 -12.5366 -3.11709
RightHand  1.30568 -1.64013 -7.00226
LeftUpLeg  46.62 15.4109 17.4437
LeftLeg  -33.8488 -5.78297 -5.44429
LeftFoot  7.52827 3.3285 -9.04926
LeftToes  1.27222e-014 -5.20697e-012 1.80337e-011
4
root  1.53535 40.0029 4.38262 179.642 -1.7975 179.503
RightUpLeg  18.9401 11.4513 7.95675
RightLeg  -106.766 -9.27459 2.76155
RightFoot  26.8364 7.56766 -20.6295
RightToes  -1.27222e-014 -6.36111e-015 6.36111e-015
Spine  -51.2581 -17.0822 -12.2297
Spine1  1.77096 -12.2496 48.9736
HEad  1.65947 -21.2208 -14.4787
LeftShoulder1  6.36111e-015 -1.33558e-015 6.49777e-015
LeftArm  35.7106 -4.3232 -54.6265
LeftForeArm  -3.50275 -23.335 -0.649395
LeftHand  -0.794959 0.332184 -10.8546
RightShoulder  -4.77083e-015 -6.36111e-015 -3.18055e-015
RightArm  60.6252 -43.7359 -33.7527
RightForeArm  -8.2759 -10.5963 -1.02702
RightHand  1.20186 -1.4992 -6.51687
LeftUpLeg  46.7943 15.4232 17.4734
LeftLeg  -33.8118 -5.86571 -5.36358
LeftFoot  7.41952 3.31144 -9.02836
LeftToes  1.27222e-014 -5.20697e-012 1.80337e-011
5
root  1.51762 39.9944 4.32778 179.667 -1.96681 179.548
RightUpLeg  19.0056 11.4009 7.94071
RightLeg  -106.739 -9.21574 2.88286
RightFoot  26.6946 7.5464 -20.5906
RightToes  -1.27222e-014 -6.36111e-015 6.36111e-015
Spine  -51.4973 -17.0776 -12.1154
Spine1  2.10685 -12.3303 48.96
HEad  1.5657 -20.8865 -14.4162
LeftShoulder1  6.36111e-015 -1.33558e-015 6.49777e-015
LeftArm  36.7584 -4.08121 -55.5056
LeftForeArm  -3.26194 -22.0466 -0.886099
LeftHand  -0.821747 0.382073 -11.3486
RightShoulder  -4.77083e-015 -6.36111e-015 -3.18055e-015
RightArm  61.8498 -44.302 -37.8676
RightForeArm  -6.05618 -8.84321 1.01373
RightHand  1.13908 -1.6016 -5.92569
LeftUpLeg  46.7554 15.4402 17.5034
LeftLeg  -33.6286 -5.94898 -5.21562
LeftFoot  7.24348 3.2895 -9.00971
LeftToes  1.27222e-014 -5.20697e-012 1.80337e-011
6
root  1.50096 39.9847 4.27313 179.715 -1.99692 179.604
RightUpLeg  19.0398 11.3671 7.95451
RightLeg  -106.704 -9.18566 2.93104
RightFoot  26.5598 7.55079 -20.5986
RightToes  -1.27222e-014 -6.36111e-015 6.36111e-015
Spine  -51.7533 -16.8506 -11.8053
Spine1  2.50114 -12.3753 48.522
HEad  1.446 -20.4914 -14.3428
LeftShoulder1  6.36111e-015 -1.33558e-015 6.49777e-015
LeftArm  37.6895 -3.64075 -55.7959
LeftForeArm  -2.85295 -21.2186 -1.32719
LeftHand  -0.835523 0.401333 -11.5795
RightShoulder  -4.77083e-015 -6.36111e-015 -3.18055e-015
RightArm  62.8602 -44.8958 -40.7648
RightForeArm  -4.91375 -8.25006 2.44692
RightHand  1.12557 -2.14387 -5.02441
LeftUpLeg  46.7199 15.4603 17.5632
LeftLeg  -33.4349 -5.96342 -5.12234
LeftFoot  7.02774 3.26527 -8.99381
LeftToes  1.27222e-014 -5.20697e-012 1.80337e-011
7
root  1.48258 39.9818 4.21269 179.684 -1.83452 179.65
RightUpLeg  19.1832 11.3663 7.98095
RightLeg  -106.699 -9.24857 2.77989
RightFoot  26.4843 7.49799 -20.5199
RightToes  -1.27222e-014 -6.36111e-015 6.36111e-015
Spine  -51.8122 -16.3734 -11.3713
Spine1  2.80097 -12.3202 47.7079
HEad  1.41363 -20.2067 -14.3676
LeftShoulder1  6.36111e-015 -1.33558e-015 6.49777e-015
LeftArm  38.4832 -2.92405 -55.5558
LeftForeArm  -2.20339 -20.9687 -1.90849
LeftHand  -0.848423 0.362753 -11.6054
RightShoulder  -4.77083e-015 -6.36111e-015 -3.18055e-015
RightArm  63.4702 -45.4933 -40.8275
RightForeArm  -5.20732 -8.76626 2.8363
RightHand  1.06556 -2.68018 -3.88477
LeftUpLeg  46.8895 15.4862 17.6574
LeftLeg  -33.3806 -5.91975 -5.16096
LeftFoot  6.87909 3.23849 -8.95497
LeftToes  1.27222e-014 -5.20697e-012 1.80337e-011
8
root  1.45944 39.9825 4.15464 179.631 -1.61838 179.667
RightUpLeg  19.3427 11.3598 7.95709
RightLeg  -106.697 -9.33287 2.52133
RightFoot  26.4255 7.39442 -20.3718
RightToes  -1.27222e-014 -6.36111e-015 6.36111e-015
Spine  -51.7847 -15.9033 -11.0456
Spine1  3.10891 -12.2024 47.0165
HEad  1.37936 -19.7063 -14.5976
LeftShoulder1  6.36111e-015 -1.33558e-015 6.49777e-015
LeftArm  38.8794 -1.97035 -54.8498
LeftForeArm  -1.4423 -21.0526 -2.50727
LeftHand  -0.886566 0.269496 -11.7541
RightShoulder  -4.77083e-015 -6.36111e-015 -3.18055e-015
RightArm  63.256 -45.9832 -37.6981
RightForeArm  -6.56249 -9.81743 2.12883
RightHand  0.911459 -2.67753 -2.88905
LeftUpLeg  47.1277 15.5203 17.7136
LeftLeg  -33.4301 -5.80411 -5.31128
LeftFoot  6.81792 3.20623 -8.88037
LeftToes  1.27222e-014 -5.20697e-012 1.80337e-011
9
root  1.43242 39.9786 4.11323 179.693 -1.45316 179.658
RightUpLeg  19.3166 11.3355 7.87499
RightLeg  -106.651 -9.36335 2.33188
RightFoot  26.3329 7.36347 -20.3217
RightToes  -1.27222e-014 -6.36111e-015 6.36111e-015
Spine  -51.7086 -15.6022 -10.9481
Spine1  3.30357 -12.051 46.7044
HEad  1.25052 -19.0193 -15.0016
LeftShoulder1  6.36111e-015 -1.33558e-015 6.49777e-015
LeftArm  38.6921 -0.76278 -53.6338
LeftForeArm  -0.596706 -21.3758 -3.08089
LeftHand  -0.91533 0.270274 -12.1089
RightShoulder  -4.77083e-015 -6.36111e-015 -3.18055e-015
RightArm  62.0862 -46.2878 -32.2984
RightForeArm  -8.50321 -11.2121 0.57543
RightHand  0.713664 -2.14647 -2.26789
LeftUpLeg  47.1603 15.5657 17.684
LeftLeg  -33.4209 -5.62862 -5.46775
LeftFoot  6.73925 3.17551 -8.81379
LeftToes  1.27222e-014 -5.20697e-012 1.80337e-011
10
root  1.40363 39.9741 4.08919 179.914 -1.35918 179.646
RightUpLeg  19.0756 11.3448 7.79659
RightLeg  -106.591 -9.37959 2.23454
RightFoot  26.2773 7.36817 -20.3238
RightToes  -1.27222e-014 -6.36111e-015 6.36111e-015
Spine  -51.4188 -15.3332 -10.921
Spine1  3.03318 -11.8513 46.4385
HEad  1.14119 -18.6753 -15.3887
LeftShoulder1  6.36111e-015 -1.33558e-015 6.49777e-015
LeftArm  38.288 0.695902 -52.0385
LeftForeArm  0.207299 -21.8752 -3.50695
LeftHand  -0.869909 0.509036 -12.3472
RightShoulder  -4.77083e-015 -6.36111e-015 -3.18055e-015
RightArm  60.3759 -46.4487 -26.0936
RightForeArm  -10.651 -12.8853 -1.35909
RightHand  0.521291 -1.40894 -1.9154
LeftUpLeg  46.9167 15.6169 17.5992
LeftLeg  -33.3069 -5.50318 -5.52262
LeftFoot  6.62421 3.15992 -8.79714
LeftToes  1.27222e-014 -5.20697e-012 1.80337e-011
11
root  1.3718 39.9779 4.06779 -179.764 -1.39252 179.651
RightUpLeg  18.7571 11.3872 7.73402
RightLeg  -106.603 -9.38382 2.18093
RightFoot  26.3224 7.25929 -20.1761
RightToes  -1.27222e-014 -6.36111e-015 6.36111e-015
Spine  -51.0327 -14.9789 -10.8017
Spine1  2.45844 -11.6339 45.9243
HEad  1.1722 -18.651 -15.6506
LeftShoulder1  6.36111e-015 -1.33558e-015 6.49777e-015
LeftArm  38.1182 2.15316 -50.3957
LeftForeArm  0.526096 -22.1193 -3.61835
LeftHand  -0.783528 0.785266 -12.2156
RightShoulder  -4.77083e-015 -6.36111e-015 -3.18055e-015
RightArm  58.5121 -46.485 -20.5767
RightForeArm  -12.4372 -14.2821 -3.11992
RightHand  0.35603 -0.716579 -1.66743
LeftUpLeg  46.531 15.6426 17.474
LeftLeg  -33.2257 -5.47514 -5.49538
LeftFoot  6.58663 3.15222 -8.78444
LeftToes  1.27222e-014 -5.20697e-012 1.80337e-011
12
root  1.33689 39.9853 4.03548 -179.438 -1.61607 179.662
RightUpLeg  18.5151 11.3773 7.62312
RightLeg  -106.756 -9.25257 2.26046
RightFoot  26.3884 7.11886 -19.9868
RightToes  -1.27222e-014 -6.36111e-015 6.36111e-015
Spine  -50.8926 -14.7124 -10.7554
Spine1  2.19949 -11.4511 45.4366
HEad  1.28697 -18.3039 -15.8935
LeftShoulder1  6.36111e-015 -1.33558e-015 6.49777e-015
LeftArm  38.0381 3.28286 -48.9742
LeftForeArm  0.195306 -21.7861 -3.47851
LeftHand  -0.766375 0.745874 -11.8915
RightShoulder  -4.77083e-015 -6.36111e-015 -3.18055e-015
RightArm  56.5274 -46.225 -16.4271
RightForeArm  -13.5264 -14.9189 -4.48372
RightHand  0.213229 -0.223584 -1.28636
LeftUpLeg  46.1925 15.6115 17.2904
LeftLeg  -33.3254 -5.48632 -5.48587
LeftFoot  6.65372 3.12951 -8.70618
LeftToes  1.27222e-014 -5.20697e-012 1.80337e-011
13
root  1.30226 39.9875 3.99441 -179.225 -2.02112 179.65
RightUpLeg  18.4449 11.2881 7.43509
RightLeg  -106.993 -8.97875 2.54884
RightFoot  26.3903 7.11264 -19.9783
RightToes  -1.27222e-014 -6.36111e-015 6.36111e-015
Spine  -50.8498 -14.6814 -11.0087
Spine1  2.30912 -11.2606 45.3108
HEad  1.40677 -17.7268 -16.1779
LeftShoulder1  6.36111e-015 -1.33558e-015 6.49777e-015
LeftArm  37.8289 4.0602 -47.9466
LeftForeArm  -0.388879 -21.3811 -3.14998
LeftHand  -0.822939 0.469897 -11.6576
RightShoulder  -4.77083e-015 -6.36111e-015 -3.18055e-015
RightArm  54.5337 -45.5531 -13.1656
RightForeArm  -14.1722 -14.7263 -5.7799
RightHand  0.0283486 0.145906 -0.375068
LeftUpLeg  46.0246 15.5607 17.1032
LeftLeg  -33.53 -5.63127 -5.42703
LeftFoot  6.70471 3.09587 -8.60002
LeftToes  1.27222e-014 -5.20697e-012 1.80337e-011
